<svg viewBox="-105.1 -426 782.1 492" width="782.1" height="492" version="1.1" baseProfile="full" xmlns="http://www.w3.org/2000/svg" class="js-draw--autoresize"><style id="js-draw-style-sheet">path{stroke-linecap:round;stroke-linejoin:round;}text{white-space:pre;}</style><g class="js-draw-image-background js-draw-image-background-grid js-draw-image-background-grid-25"><path d="M677,66l0-492l-782.1,0l0,492l782.1,0" fill="#ffffff"></path><path d="M-105.45,-425l782.8,0m-782.8,25l782.8,0m-782.8,25l782.8,0m-782.8,25l782.8,0m-782.8,25l782.8,0m-782.8,25l782.8,0m-782.8,25l782.8,0m-782.8,25l782.8,0m-782.8,25l782.8,0m-782.8,25l782.8,0m-782.8,25l782.8,0m-782.8,25l782.8,0m-782.8,25l782.8,0m-782.8,25l782.8,0m-782.8,25l782.8,0m-782.8,25l782.8,0m-782.8,25l782.8,0m-782.8,25l782.8,0m-782.8,25l782.8,0m-782.8,25l782.8,0m-777.35-476.35l0,492.7m25-492.7l0,492.7m25-492.7l0,492.7m25-492.7l0,492.7m25-492.7l0,492.7m25-492.7l0,492.7m25-492.7l0,492.7m25-492.7l0,492.7m25-492.7l0,492.7m25-492.7l0,492.7m25-492.7l0,492.7m25-492.7l0,492.7m25-492.7l0,492.7m25-492.7l0,492.7m25-492.7l0,492.7m25-492.7l0,492.7m25-492.7l0,492.7m25-492.7l0,492.7m25-492.7l0,492.7m25-492.7l0,492.7m25-492.7l0,492.7m25-492.7l0,492.7m25-492.7l0,492.7m25-492.7l0,492.7m25-492.7l0,492.7m25-492.7l0,492.7m25-492.7l0,492.7m25-492.7l0,492.7m25-492.7l0,492.7m25-492.7l0,492.7m25-492.7l0,492.7m25-492.7l0,492.7" fill="none" stroke="#00000033" stroke-width=".7"></path></g><path d="M13,-376Q18,-347 22,-324Q17,-329 11,-340Q9,-344 25,-352Q42,-360 38,-378Q38,-378 36,-378Q30,-377 48,-336Q48,-335 51,-333" fill="none" stroke="#803380" stroke-width="4"></path><path d="M62,-342q4-7 4-12q0-10 -9,5q-6,9 4,19q4,4 14-22q2-5 -2-25q3,11 9,31q4,14 13,2q8-10 -5-36q-7-14 1,28q6,34 21,16q4-5 4-15q1,4 2,11q2,15 16-6q4-6 -9-14q-2-1 -10,8" fill="none" stroke="#803380" stroke-width="5"></path><path d="M192,-356q-.6,.4 -3,2q-5,3 1,27q1,6 8-3q1-5 1-10q0-2 7,6q5,6 10-8q-3-7 -8-12" fill="none" stroke="#803380" stroke-width="4"></path><path d="M222,-349q2,15 4,17q4,4 4-10q0-2 0-12q0-3 10,10q2,4 4,8q2-6 2-16q3-4 6-6q3-2 0-18q2,11 5,32" fill="none" stroke="#803380" stroke-width="5"></path><path d="M288,-341q-6-4 -10-3q-11,3 -3,18q2,3 9-13q4-9 -7-37q-4-9 -6,16q4,20 10,36" fill="none" stroke="#803380" stroke-width="5"></path><path d="M231,-337l6-12q-2,6 61-32l-6-10q-68,44 -61,54   M290,-351l-8-14q-38,20 -45,16l-6,12q15,7 59-14   M166,-333l14,10q29-44 75-35q28,1 27-7l8,14q8-12 -33-23q-54-8 -91,41   M216,-321l-4-16q-41,15 -32,14l-14-10q-7,22 50,12   M290,-375l-16,8q12,13 -62,30l4,16q84-23 74-54   M215,-353l10,12q48-40 49-26l16-8q-17-21 -75,22   M223,-315l2-12q-27,0 0-14l-10-12q-30,30 8,38   M285,-345l-12-10q-24,31 -48,28l-2,12q32,4 62-30   M227,-375l2,16q66-13 44,4l12,10q22-35 -58-30   M196,-342l12-2q-5-15 21-15l-2-16q-34,7 -31,33   M258,-333l-2-14q-50,6 -48,3l-12,2q5,13 62,9   M280,-360l-12,12q11,2 -12,1l2,14q34-7 22-27   M197,-356l6,16q56-20 65-8l12-12q-19-16 -83,4   M196,-331l6-16q-8,4 1,7l-6-16q-19,13 -1,25   M303,-360l-6-16q-45,19 -99,29l4,0l-6,16q61-10 107-29   M277,-340l14,12q37-53 6-48l6,16q10-12 -26,20   M272,-335l10,14q6-5 9-7l-14-12q0,1 -5,5" fill="#ffff0080"></path><path d="M33,-264q-2.2-1.1 -4-2q-6.8-3.4 38,0q103-4 187-13q19,0 34,1" fill="none" stroke="#803380" stroke-width="4"></path><text data-highp-transform="matrix(1,0,0,1,50,-223)" style="transform: matrix(1, 0, 0, 1, 50, -223); font-family: sans-serif; font-size: 32px; fill: rgb(128, 51, 128);">Hello world</text><path d="M4,-169Q4,-131 4,-100" fill="none" stroke="#803380" stroke-width="4"></path><path d="M-5,-109Q205,-109 376,-109" fill="none" stroke="#803380" stroke-width="4"></path><path d="M273,-169q71,0 105,0" fill="none" stroke="#803380" stroke-width="3"></path><path d="M380,-171q0,44 0,64" fill="none" stroke="#803380" stroke-width="4"></path><path d="M234,-45q.3,.3 0,.3q-.3,0 -.3-.3q0-.3 .3-.3q.3,0 .3,.3" fill="none" stroke="#803380" stroke-width="3"></path><path d="M69,-166.7q-.6-.1 -2.8-.3q-2.5-.2 2.8,12.3q2.9,6.8 0,37.3q0,1.4 0,8.4" fill="none" stroke="#803380" stroke-width="3"></path><path d="M124,-166q0,35 0,57" fill="none" stroke="#803380" stroke-width="3"></path><path d="M180,-166q0,39 0,61" fill="none" stroke="#803380" stroke-width="3"></path><path d="M234,-165q0,43 0,62" fill="none" stroke="#803380" stroke-width="4"></path><path d="M310.2,-162q-.1-1.1 -.2-2.1q-.4-4.5 0,22.7q0,7.4 0,34.4" fill="none" stroke="#803380" stroke-width="3"></path><path d="M67,-169l-2,0l1,66l4,0l-3-66" fill="#803380"></path><path d="M383,-295l0,2l293-8l0-4l-293,10" fill="#803380"></path><path d="M392,-298l-2,0l-12,71l4,0l10-71" fill="#803380"></path><path d="M367,-230l0,2l296-16l0-4l-296,18" fill="#803380"></path><path d="M677,-302l-2-2l-29,57l4,2l27-57" fill="#803380"></path><path d="M446,-301l-2,0l-10,70l4,0l8-70" fill="#803380"></path><path d="M503,-303l-2,0l-9,64l4,0l7-64" fill="#803380"></path><path d="M548,-299l-2,0l-7,67l4,0l5-67" fill="#803380"></path><path d="M602,-299l-2,0l-7,58l4,0l5-58" fill="#803380"></path><path d="M552,-404q4,27 -3,60q-3,9 -6,15q2-1 5-4q2-1 54-1q11,1 20,3q-1-7 -5-16q-4-33 -3-61q1-7 -53,2q-11,2 -20,4" fill="none" stroke="#803380" stroke-width="4"></path><path d="M395,-385q-5.4-.2 -9.7,6.1q-10.2,14.7 4.3,37.8q6.4,11.1 21.4-2.9q6-7 0-30q-7-9 -15-15" fill="none" stroke="#803380" stroke-width="3"></path><path d="M326,-277q-3.2-15 -12.3-12.4q-11.5,3.4 -10.3,38.3q1,29.3 29.7,20.7q14.6-4.3 16.1-32.7q.8-23.9 -25.2-26.9" fill="none" stroke="#803380" stroke-width="3"></path><path d="M-58,-269q-7-1 -12,13q-8,20 8,51q10,20 34,5q15-9 10-36q-3-20 -33-28q-13-3 -39,23" fill="none" stroke="#803380" stroke-width="5"></path><path d="M-84,-338q-12,11 -13,24q0,19 22,24q15,4 23-18q5-16 -12-31q-6-5 -29,8" fill="none" stroke="#803380" stroke-width="4"></path><path d="M-73,-183q-7,2 -11,6q-19.6,19.6 -4,54q8.3,18.2 37-1q20.4-13.6 15-35q-8-30 -30-28" fill="none" stroke="#803380" stroke-width="3"></path><path d="M-52,-399q-7,9 -8,14q-2.1,10.4 12,21q10.2,7.7 20-7q7-10.5 7-14q0-16 -24-13q-11,1 -23,13" fill="none" stroke="#803380" stroke-width="3"></path><path d="M-24,-303q-.8-.2 -4-1q-5.3-1.3 8-8q16-8 29,19q12,23 -5,29q-16,5 -26-2q-12-9 -14-14q-11-28 15-32q3,0 6,1" fill="none" stroke="#803380" stroke-width="4"></path><path d="M4,-8L4,-6L308,-35L308,-39L4,-8" fill="#803380"></path><path d="M5,-11L3,-11L2,63L6,63L5,-11" fill="#803380"></path><path d="M-2,64L-2,66L150,25L148,21L-2,64" fill="#803380"></path><path d="M141,25l0,2l186,22l0-4l-186-20" fill="#803380"></path><path d="M309,-39l-2,0l13,86l4,0l-15-86" fill="#803380"></path><path d="M4,49L4,51L136,9L134,5L4,49" fill="#803380"></path><path d="M156,10L156,12L306,33L306,29L156,10" fill="#803380"></path><path d="M201,-55q2.7,0 5,0" fill="none" stroke="#cc6633" stroke-width="2"></path><path d="M33,-145q6-9.5 6.7-8.4q7.3,10.6 4.7,23q-.3,1.6 -10.9,1q7.2-.8 20.5-1.6" fill="none" stroke="#cc6633" stroke-width="2.5"></path><path d="M94,-146q-1.9,1.1 -1.1,.9q10.8-2.5 9.7,9.8q-.5,4.8 -10.2,5.8q2.3,.2 6.5,.3q2,.1 10.1-.8" fill="none" stroke="#cc6633" stroke-width="2.1"></path><text data-highp-transform="matrix(1,0,0,1,27,-129)" style="transform: matrix(1, 0, 0, 1, 27, -129); font-family: sans-serif; font-size: 32px; fill: rgb(128, 51, 128);">1</text><path d="M149,-151q-7.7-1.2 -7.7-.1q-.3,12.5 6.3,12.3q9.7-.3 8.4,5.8q-7.1,2.9 -15,3" fill="none" stroke="#cc6633" stroke-width="2.3"></path><text data-highp-transform="matrix(1,0,0,1,85,-122)" style="transform: matrix(1, 0, 0, 1, 85, -122); font-family: sans-serif; font-size: 32px; fill: rgb(128, 51, 128);">3</text><path d="M212,-149q-6.8,1 -10,12.3q-4,13.7 7.3,14.9q6.6,.7 5.8-7.8q-.6-6.2 -10.1-1.4" fill="none" stroke="#cc6633" stroke-width="2.3"></path><text data-highp-transform="matrix(1,0,0,1,137,-123)" style="transform: matrix(1, 0, 0, 1, 137, -123); font-family: sans-serif; font-size: 32px; fill: rgb(128, 51, 128);">2</text><path d="M272,-149q-6.5,7 4,13.3q12.9,7.8 1.2,11.2q-9.1,2.6 -9.7-6.8q4.9-9.6 11.3-16.8q-.5-1.4 -1.5-2.7q-.3-.4 -2.3,.8" fill="none" stroke="#cc6633" stroke-width="2"></path><path d="M335,-139q.1,.1 0,.1q-.1,0 -.1-.1q0-.1 .1-.1q.1,0 .1,.1" fill="none" stroke="#cc6633" stroke-width="1.2"></path><path d="M4,-168Q162,-168 281,-168" fill="none" stroke="#803380" stroke-width="4"></path><path d="M333,-137q4.2-11.5 4.3-10.8q3,21.7 1.7,21.6q-7.1-.6 -5.9-.7q9-.7 13.9-3.1" fill="none" stroke="#cc6633" stroke-width="2.6"></path><path d="M355,-141q-6.4,11.8 1,9.2q4.1-1.4 -5.5-12.3" fill="none" stroke="#cc6633" stroke-width="2.4"></path><path d="M158,-426l0,4l214,7l0-4l-214-7" fill="#803380"></path><path d="M160,-402l0,4l160,10l0-4l-160-10" fill="#803380"></path></svg>